<svg width="135" height="334" viewBox="0 0 135 334" fill="none" xmlns="http://www.w3.org/2000/svg">
<g clip-path="url(#clip0_301_339)">
<path d="M86.9966 316.452C70.4906 313.883 70.5419 301.885 70.5419 301.885V199.963C70.5419 188.402 88.3315 180.694 88.3315 180.694C137.387 155.438 135.642 129.746 132.176 91.2077C128.711 52.6692 117.416 1.28461 117.416 1.28461H17.5585C17.5585 1.28461 6.28924 52.6692 2.79808 91.2077C-0.693077 129.746 -2.41299 155.438 46.6429 180.694C46.6429 180.694 64.4324 188.402 64.4324 199.963V301.885C64.4324 301.885 64.4581 313.883 47.9778 316.452C31.4718 319.021 5.39078 319.021 10.1655 325.881C14.9401 332.741 54.8831 332.741 67.4615 332.741C80.04 332.741 119.983 332.741 124.758 325.881C129.532 319.021 103.451 319.021 86.9453 316.452H86.9966Z" stroke="black" stroke-miterlimit="10"/>
<path d="M127.581 111.916C127.581 145.496 100.371 178.87 66.8197 178.87C33.2686 178.87 6.05811 145.496 6.05811 111.916H127.581Z" fill="#BE3455"/>
</g>
<defs>
<clipPath id="clip0_301_339">
<rect width="135" height="334" fill="white"/>
</clipPath>
</defs>
</svg>
