<svg width="374" height="37" viewBox="0 0 374 37" fill="none" xmlns="http://www.w3.org/2000/svg">
<path d="M0.255859 3.12L0.303859 2.4H11.9679C15.2639 2.4 17.8079 3.12 19.5999 4.56C21.3919 6 22.2879 8.144 22.2879 10.992C22.2879 12.848 21.5679 14.784 20.1279 16.8C18.7199 18.816 17.3919 20.112 16.1439 20.688L25.0239 35.136L27.3759 35.28C27.3759 35.312 27.3599 35.552 27.3279 36L22.0959 36.048L12.9759 21.264H6.59186V35.088L9.95186 35.28C9.95186 35.312 9.93586 35.552 9.90386 36L0.255859 36.048L0.303859 35.376L2.79986 35.04C3.02386 35.008 3.19986 34.864 3.32786 34.608V3.888C3.23186 3.6 3.05586 3.44 2.79986 3.408L0.255859 3.12ZM11.7279 3.12H6.59186V20.544H14.7999C16.4639 18.656 17.5839 16.992 18.1599 15.552C18.7359 14.08 19.0239 12.656 19.0239 11.28C19.0239 8.592 18.3999 6.56 17.1519 5.184C15.9039 3.808 14.0959 3.12 11.7279 3.12Z" fill="black"/>
<path d="M30.8892 24.96C30.8892 31.872 33.5772 35.328 38.9532 35.328C40.3612 35.328 41.8652 35.184 43.4652 34.896C45.0652 34.576 46.0892 34.288 46.5372 34.032L46.8732 34.512C46.1372 34.992 44.9212 35.392 43.2252 35.712C41.5612 36.032 40.0252 36.192 38.6172 36.192C37.2412 36.192 35.9932 36.048 34.8732 35.76C33.7852 35.472 32.6652 34.96 31.5132 34.224C30.3612 33.488 29.4492 32.336 28.7772 30.768C28.1052 29.2 27.7692 27.28 27.7692 25.008C27.7692 20.784 28.8572 17.552 31.0332 15.312C33.3052 12.976 35.9452 11.808 38.9532 11.808C41.9612 11.808 44.2492 12.64 45.8172 14.304C47.4172 15.968 48.2172 18.304 48.2172 21.312C48.2172 21.952 48.1692 22.64 48.0732 23.376H30.9372C30.9052 23.728 30.8892 24.256 30.8892 24.96ZM45.3852 20.976C45.3852 18.576 44.8572 16.624 43.8012 15.12C42.7452 13.584 41.3052 12.816 39.4812 12.816C37.1132 12.816 35.1132 13.856 33.4812 15.936C32.1692 17.568 31.3532 19.744 31.0332 22.464H45.3372C45.3692 22.112 45.3852 21.616 45.3852 20.976Z" fill="black"/>
<path d="M71.6345 1.968V33.504C71.6345 34.496 71.8905 34.992 72.4025 34.992L75.2825 35.136L75.2345 35.856C73.6985 36.112 72.0985 36.24 70.4345 36.24C70.0825 36.208 69.6985 36.032 69.2825 35.712C68.8985 35.392 68.6745 34.976 68.6105 34.464C66.7865 35.616 64.6745 36.192 62.2745 36.192C59.9385 36.192 57.7785 35.536 55.7945 34.224C54.6745 33.488 53.7625 32.336 53.0585 30.768C52.3865 29.168 52.0505 27.232 52.0505 24.96C52.0505 20.768 53.1225 17.568 55.2665 15.36C57.5385 12.992 60.1305 11.808 63.0425 11.808C64.8345 11.808 66.6585 12.272 68.5145 13.2V1.728C68.5145 1.376 68.4185 1.2 68.2265 1.2L65.2985 1.104L65.3465 0.432C67.3625 0.144 68.7385 0 69.4745 0C70.2425 0 70.7865 0.208 71.1065 0.624001C71.4585 1.04 71.6345 1.488 71.6345 1.968ZM62.8985 35.328C64.8505 35.328 66.7225 34.896 68.5145 34.032V13.968C67.1065 13.104 65.7145 12.672 64.3385 12.672C61.5865 12.672 59.3625 13.728 57.6665 15.84C56.0025 17.952 55.1705 20.976 55.1705 24.912C55.1705 31.856 57.7465 35.328 62.8985 35.328Z" fill="black"/>
<path d="M102.399 2.4C102.399 2.432 102.415 2.672 102.447 3.12L98.7031 3.456L106.671 34.752L115.599 2.4H116.319L116.175 2.784L116.367 2.4L124.815 34.848L133.263 4.08C133.263 3.76 133.119 3.584 132.831 3.552L128.319 3.168L128.271 2.448L137.679 2.4C137.679 2.432 137.695 2.672 137.727 3.12L134.607 3.408L125.103 36H122.175L114.927 7.344L107.007 36H104.031L95.7751 3.792C95.6791 3.568 95.5191 3.44 95.2951 3.408L92.7991 3.168L92.7511 2.448L102.399 2.4Z" fill="black"/>
<path d="M145.683 13.968V35.04L149.283 35.28C149.283 35.312 149.267 35.552 149.235 36L139.635 36.048C139.635 35.76 139.651 35.536 139.683 35.376L142.179 35.04C142.371 35.04 142.499 34.896 142.563 34.608V13.536C142.499 13.312 142.403 13.2 142.275 13.2L139.395 13.104L139.443 12.432C141.171 12.144 142.483 12 143.379 12C144.275 12 144.883 12.208 145.203 12.624C145.523 13.04 145.683 13.488 145.683 13.968ZM144.051 5.568C143.411 5.568 142.915 5.376 142.563 4.992C142.211 4.576 142.035 4.048 142.035 3.408C142.035 2.736 142.211 2.208 142.563 1.824C142.947 1.408 143.459 1.2 144.099 1.2C144.739 1.2 145.251 1.408 145.635 1.824C146.051 2.208 146.259 2.752 146.259 3.456C146.259 4.128 146.051 4.656 145.635 5.04C145.219 5.392 144.691 5.568 144.051 5.568Z" fill="black"/>
<path d="M152.421 36.048L152.469 35.376L154.965 35.04C155.253 35.008 155.397 34.784 155.397 34.368V13.584C155.333 13.328 155.237 13.2 155.109 13.2L152.181 13.104L152.229 12.432C154.245 12.144 155.605 12 156.309 12C157.589 12 158.309 12.56 158.469 13.68H158.517V14.688C161.141 12.896 163.653 11.952 166.053 11.856C168.389 11.856 170.165 12.32 171.381 13.248C171.925 13.664 172.405 14.32 172.821 15.216C173.269 16.08 173.493 17.12 173.493 18.336V35.04L177.093 35.28C177.093 35.312 177.077 35.552 177.045 36L167.445 36.048C167.445 35.76 167.461 35.536 167.493 35.376L169.989 35.04C170.245 35.008 170.373 34.784 170.373 34.368V19.536C170.373 18.256 170.197 17.168 169.845 16.272C169.525 15.376 169.157 14.72 168.741 14.304C168.325 13.888 167.813 13.568 167.205 13.344C166.501 13.088 165.765 12.96 164.997 12.96C163.077 12.992 160.917 13.744 158.517 15.216V35.04L162.117 35.28C162.117 35.312 162.101 35.552 162.069 36L152.421 36.048Z" fill="black"/>
<path d="M182.436 24.96C182.436 31.872 185.124 35.328 190.5 35.328C191.908 35.328 193.412 35.184 195.012 34.896C196.612 34.576 197.636 34.288 198.084 34.032L198.42 34.512C197.684 34.992 196.468 35.392 194.772 35.712C193.108 36.032 191.572 36.192 190.164 36.192C188.788 36.192 187.54 36.048 186.42 35.76C185.332 35.472 184.212 34.96 183.06 34.224C181.908 33.488 180.996 32.336 180.324 30.768C179.652 29.2 179.316 27.28 179.316 25.008C179.316 20.784 180.404 17.552 182.58 15.312C184.852 12.976 187.492 11.808 190.5 11.808C193.508 11.808 195.796 12.64 197.364 14.304C198.964 15.968 199.764 18.304 199.764 21.312C199.764 21.952 199.716 22.64 199.62 23.376H182.484C182.452 23.728 182.436 24.256 182.436 24.96ZM196.932 20.976C196.932 18.576 196.404 16.624 195.348 15.12C194.292 13.584 192.852 12.816 191.028 12.816C188.66 12.816 186.66 13.856 185.028 15.936C183.716 17.568 182.9 19.744 182.58 22.464H196.884C196.916 22.112 196.932 21.616 196.932 20.976Z" fill="black"/>
<path d="M254.997 19.056C254.997 19.088 255.013 19.328 255.045 19.776L251.493 20.064C250.437 24.16 248.773 27.504 246.501 30.096C247.973 31.408 249.893 33.072 252.261 35.088L254.565 35.28C254.565 35.312 254.549 35.552 254.517 36L250.341 36.048H249.285L244.581 31.968C241.253 34.784 237.061 36.192 232.005 36.192C223.461 36.192 219.189 32.464 219.189 25.008C219.189 21.808 219.973 19.296 221.541 17.472C223.141 15.616 225.285 14.416 227.973 13.872C226.213 11.184 225.333 8.976 225.333 7.248C225.333 5.52 226.037 3.888 227.445 2.352C228.853 0.816002 230.965 0.0480022 233.781 0.0480022C235.285 0.0480022 236.437 0.208002 237.237 0.528002C238.037 0.816002 238.661 1.056 239.109 1.248C239.557 1.44 239.989 1.68 240.405 1.968C240.821 2.256 241.157 2.48 241.413 2.64C241.925 2.992 242.341 3.328 242.661 3.648L242.277 4.128C239.589 1.888 236.965 0.768002 234.405 0.768002C233.189 0.768002 232.149 1.024 231.285 1.536C230.453 2.016 229.845 2.624 229.461 3.36C228.789 4.704 228.453 5.952 228.453 7.104C228.453 11.392 233.973 18.608 245.013 28.752C246.645 26.416 247.813 23.744 248.517 20.736C248.517 20.352 248.325 20.128 247.941 20.064L244.965 19.824C244.933 19.632 244.917 19.392 244.917 19.104L254.997 19.056ZM232.341 35.472C236.757 35.472 240.437 33.92 243.381 30.816C236.373 24.384 231.381 18.976 228.405 14.592C226.453 15.136 224.949 16.288 223.893 18.048C222.837 19.808 222.309 22.208 222.309 25.248C222.309 28.288 223.109 30.752 224.709 32.64C226.309 34.528 228.853 35.472 232.341 35.472Z" fill="black"/>
<path d="M273.677 3.12L273.725 2.4H294.269L294.221 2.544L294.845 9.312L293.885 9.696L293.117 3.36H280.061V18.864H291.533C291.693 18.896 291.837 18.864 291.965 18.768C292.093 18.64 292.157 18.48 292.157 18.288L292.349 14.976L293.117 14.88V23.088C293.085 23.088 292.845 23.104 292.397 23.136L292.205 19.824H280.061V35.088L283.373 35.28C283.373 35.312 283.357 35.552 283.325 36L273.677 36.048L273.725 35.376L276.221 35.04C276.541 35.008 276.733 34.8 276.797 34.416V4.032C276.733 3.648 276.541 3.44 276.221 3.408L273.677 3.12Z" fill="black"/>
<path d="M306.891 36.192C303.563 36.192 300.859 35.232 298.779 33.312C296.731 31.392 295.707 28.464 295.707 24.528C295.707 20.56 296.795 17.456 298.971 15.216C301.179 12.944 303.947 11.808 307.275 11.808C310.603 11.808 313.307 12.768 315.387 14.688C317.467 16.608 318.507 19.552 318.507 23.52C318.507 27.456 317.403 30.56 315.195 32.832C313.019 35.072 310.251 36.192 306.891 36.192ZM307.227 12.672C304.827 12.672 302.827 13.712 301.227 15.792C299.627 17.872 298.827 20.704 298.827 24.288C298.827 27.84 299.579 30.576 301.083 32.496C302.619 34.384 304.587 35.328 306.987 35.328C309.387 35.328 311.387 34.288 312.987 32.208C314.587 30.128 315.387 27.312 315.387 23.76C315.387 20.208 314.619 17.472 313.083 15.552C311.579 13.632 309.627 12.672 307.227 12.672Z" fill="black"/>
<path d="M334.031 36.192C330.703 36.192 327.999 35.232 325.919 33.312C323.871 31.392 322.847 28.464 322.847 24.528C322.847 20.56 323.935 17.456 326.111 15.216C328.319 12.944 331.087 11.808 334.415 11.808C337.743 11.808 340.447 12.768 342.527 14.688C344.607 16.608 345.647 19.552 345.647 23.52C345.647 27.456 344.543 30.56 342.335 32.832C340.159 35.072 337.391 36.192 334.031 36.192ZM334.367 12.672C331.967 12.672 329.967 13.712 328.367 15.792C326.767 17.872 325.967 20.704 325.967 24.288C325.967 27.84 326.719 30.576 328.223 32.496C329.759 34.384 331.727 35.328 334.127 35.328C336.527 35.328 338.527 34.288 340.127 32.208C341.727 30.128 342.527 27.312 342.527 23.76C342.527 20.208 341.759 17.472 340.223 15.552C338.719 13.632 336.767 12.672 334.367 12.672Z" fill="black"/>
<path d="M369.572 1.968V33.504C369.572 34.496 369.828 34.992 370.34 34.992L373.22 35.136L373.172 35.856C371.636 36.112 370.036 36.24 368.372 36.24C368.02 36.208 367.636 36.032 367.22 35.712C366.836 35.392 366.612 34.976 366.548 34.464C364.724 35.616 362.612 36.192 360.212 36.192C357.876 36.192 355.716 35.536 353.732 34.224C352.612 33.488 351.7 32.336 350.996 30.768C350.324 29.168 349.988 27.232 349.988 24.96C349.988 20.768 351.06 17.568 353.204 15.36C355.476 12.992 358.068 11.808 360.98 11.808C362.772 11.808 364.596 12.272 366.452 13.2V1.728C366.452 1.376 366.356 1.2 366.164 1.2L363.236 1.104L363.284 0.432C365.3 0.144 366.676 0 367.412 0C368.18 0 368.724 0.208 369.044 0.624001C369.396 1.04 369.572 1.488 369.572 1.968ZM360.836 35.328C362.788 35.328 364.66 34.896 366.452 34.032V13.968C365.044 13.104 363.652 12.672 362.276 12.672C359.524 12.672 357.3 13.728 355.604 15.84C353.94 17.952 353.108 20.976 353.108 24.912C353.108 31.856 355.684 35.328 360.836 35.328Z" fill="black"/>
</svg>
