<svg width="622" height="72" viewBox="0 0 622 72" fill="none" xmlns="http://www.w3.org/2000/svg">
<rect y="11" width="622" height="17" rx="8.5" fill="url(#paint0_linear_301_414)"/>
<circle cx="114.5" cy="19.5" r="19.5" fill="#CA4362"/>
<path d="M3.768 49.344C4.328 49.344 4.856 49.32 5.352 49.272C5.864 49.224 6.392 49.2 6.936 49.2C9.192 49.2 10.848 49.76 11.904 50.88C12.96 52 13.488 53.624 13.488 55.752C13.488 58.2 12.872 60.056 11.64 61.32C10.424 62.568 8.768 63.168 6.672 63.12C6.416 63.12 6.12 63.112 5.784 63.096C5.464 63.08 5.128 63.056 4.776 63.024C4.424 63.008 4.096 63 3.792 63H0.96V62.112L2.376 61.848C2.664 61.8 2.808 61.632 2.808 61.344V51C2.808 50.76 2.68 50.6 2.424 50.52L0.96 50.232V49.344H3.768ZM4.752 61.968C4.992 62.032 5.32 62.08 5.736 62.112C6.168 62.144 6.544 62.152 6.864 62.136C7.824 62.104 8.64 61.88 9.312 61.464C10 61.048 10.52 60.4 10.872 59.52C11.224 58.64 11.4 57.504 11.4 56.112C11.4 54.08 11 52.584 10.2 51.624C9.4 50.664 8.168 50.184 6.504 50.184C6.136 50.184 5.8 50.2 5.496 50.232C5.192 50.264 4.944 50.288 4.752 50.304V61.968ZM18.4181 55.296C18.6261 54.912 18.9141 54.528 19.2821 54.144C19.6661 53.744 20.0981 53.416 20.5781 53.16C21.0741 52.904 21.5781 52.776 22.0901 52.776C22.2661 52.776 22.4661 52.8 22.6901 52.848C22.9301 52.896 23.1301 52.96 23.2901 53.04C23.3221 53.52 23.3141 54.072 23.2661 54.696C23.2341 55.304 23.1621 55.864 23.0501 56.376H22.1621L21.8981 55.008C21.8501 54.816 21.7781 54.68 21.6821 54.6C21.6021 54.52 21.4741 54.48 21.2981 54.48C20.8341 54.48 20.3541 54.6 19.8581 54.84C19.3621 55.064 18.9141 55.424 18.5141 55.92L18.4181 55.296ZM18.8501 55.272V61.392C18.8501 61.728 19.0181 61.912 19.3541 61.944L21.1061 62.136V63H15.4421V62.112L16.4981 61.944C16.8181 61.896 16.9781 61.712 16.9781 61.392V54.888C16.9781 54.536 16.8181 54.336 16.4981 54.288L15.2981 54.144V53.28C15.7621 53.136 16.2581 53.024 16.7861 52.944C17.3301 52.864 17.8341 52.816 18.2981 52.8L18.5861 53.088L18.8501 55.272ZM24.3377 66.24C25.1057 66.176 25.7777 66.072 26.3537 65.928C26.9297 65.784 27.4257 65.56 27.8417 65.256C28.2737 64.968 28.6497 64.552 28.9697 64.008C29.3057 63.464 29.6097 62.76 29.8817 61.896L32.3057 54.144L30.8897 53.88V53.016H34.6817V53.88L33.9617 54.096C33.8337 54.128 33.7217 54.184 33.6257 54.264C33.5457 54.328 33.4817 54.432 33.4337 54.576L30.4577 63.384C29.9777 64.808 29.4257 65.848 28.8017 66.504C28.1937 67.176 27.3857 67.512 26.3777 67.512C26.0417 67.512 25.6977 67.496 25.3457 67.464C25.0097 67.432 24.6737 67.392 24.3377 67.344V66.24ZM30.0497 63H28.5857L25.4177 54.552C25.3217 54.312 25.1457 54.16 24.8897 54.096L24.1697 53.88V53.016H28.8977V53.88L27.4097 54.144L30.3617 62.424L30.0497 63Z" fill="black"/>
<path d="M577.121 59.28C577.121 59.936 576.953 60.568 576.617 61.176C576.297 61.768 575.785 62.256 575.081 62.64C574.393 63.008 573.497 63.192 572.393 63.192C571.465 63.192 570.633 63.08 569.897 62.856C569.161 62.616 568.569 62.36 568.121 62.088C568.105 61.512 568.105 60.936 568.121 60.36C568.153 59.784 568.209 59.216 568.289 58.656H569.441L569.777 60.696C569.777 60.792 569.801 60.896 569.849 61.008C569.913 61.104 569.993 61.208 570.089 61.32C570.329 61.544 570.657 61.752 571.073 61.944C571.505 62.136 571.993 62.232 572.537 62.232C573.385 62.232 574.033 62.024 574.481 61.608C574.929 61.192 575.153 60.616 575.153 59.88C575.153 59.32 575.025 58.872 574.769 58.536C574.513 58.184 574.153 57.88 573.689 57.624C573.225 57.368 572.689 57.096 572.081 56.808C571.505 56.552 570.929 56.256 570.353 55.92C569.793 55.584 569.321 55.168 568.937 54.672C568.553 54.16 568.361 53.504 568.361 52.704C568.361 51.68 568.737 50.832 569.489 50.16C570.241 49.472 571.353 49.128 572.825 49.128C573.465 49.128 574.105 49.192 574.745 49.32C575.385 49.448 575.937 49.624 576.401 49.848C576.449 50.424 576.457 50.984 576.425 51.528C576.393 52.056 576.345 52.576 576.281 53.088H575.153L574.817 51.312C574.785 51.184 574.745 51.072 574.697 50.976C574.649 50.864 574.561 50.76 574.433 50.664C574.257 50.504 573.993 50.368 573.641 50.256C573.289 50.128 572.905 50.064 572.489 50.064C571.737 50.064 571.161 50.248 570.761 50.616C570.377 50.968 570.185 51.464 570.185 52.104C570.185 52.648 570.305 53.088 570.545 53.424C570.801 53.76 571.169 54.064 571.649 54.336C572.129 54.608 572.713 54.904 573.401 55.224C574.025 55.528 574.617 55.856 575.177 56.208C575.753 56.544 576.217 56.96 576.569 57.456C576.937 57.936 577.121 58.544 577.121 59.28ZM591.258 54.144L589.89 53.88V53.016H593.49V53.88L592.914 54.048C592.786 54.08 592.674 54.136 592.578 54.216C592.498 54.28 592.434 54.384 592.386 54.528L589.794 63.144H588.762L591.258 54.144ZM583.242 63.144H581.97L579.21 54.504C579.13 54.28 578.962 54.128 578.706 54.048L578.154 53.88V53.016H582.402V53.88L581.058 54.144L583.434 62.448L583.242 63.144ZM585.738 53.016H587.082L589.65 62.424L589.458 63.144H588.186L585.45 53.928L585.738 53.016ZM583.602 63.144H582.546L585.33 53.016H586.458L583.602 63.144ZM594.297 58.152C594.297 56.472 594.713 55.16 595.545 54.216C596.393 53.256 597.529 52.776 598.953 52.776C600.041 52.776 600.921 53.072 601.593 53.664C602.265 54.256 602.601 55.12 602.601 56.256C602.601 56.416 602.593 56.616 602.577 56.856C602.561 57.08 602.537 57.288 602.505 57.48H595.665V56.568H600.705C600.721 56.488 600.729 56.416 600.729 56.352C600.745 56.288 600.753 56.208 600.753 56.112C600.753 55.424 600.569 54.864 600.201 54.432C599.849 53.984 599.345 53.76 598.689 53.76C597.937 53.76 597.345 54.072 596.913 54.696C596.481 55.32 596.265 56.328 596.265 57.72C596.265 58.776 596.393 59.616 596.649 60.24C596.905 60.848 597.249 61.288 597.681 61.56C598.129 61.816 598.641 61.944 599.217 61.944C599.777 61.944 600.297 61.816 600.777 61.56C601.273 61.304 601.665 60.952 601.953 60.504L602.553 60.864C602.345 61.584 601.897 62.16 601.209 62.592C600.537 63.024 599.697 63.24 598.689 63.24C597.697 63.24 596.873 63.024 596.217 62.592C595.577 62.144 595.097 61.544 594.777 60.792C594.457 60.024 594.297 59.144 594.297 58.152ZM604.586 58.152C604.586 56.472 605.002 55.16 605.834 54.216C606.682 53.256 607.818 52.776 609.242 52.776C610.33 52.776 611.21 53.072 611.882 53.664C612.554 54.256 612.89 55.12 612.89 56.256C612.89 56.416 612.882 56.616 612.866 56.856C612.85 57.08 612.826 57.288 612.794 57.48H605.954V56.568H610.994C611.01 56.488 611.018 56.416 611.018 56.352C611.034 56.288 611.042 56.208 611.042 56.112C611.042 55.424 610.858 54.864 610.49 54.432C610.138 53.984 609.634 53.76 608.978 53.76C608.226 53.76 607.634 54.072 607.202 54.696C606.77 55.32 606.554 56.328 606.554 57.72C606.554 58.776 606.682 59.616 606.938 60.24C607.194 60.848 607.538 61.288 607.97 61.56C608.418 61.816 608.93 61.944 609.506 61.944C610.066 61.944 610.586 61.816 611.066 61.56C611.562 61.304 611.954 60.952 612.242 60.504L612.842 60.864C612.634 61.584 612.186 62.16 611.498 62.592C610.826 63.024 609.986 63.24 608.978 63.24C607.986 63.24 607.162 63.024 606.506 62.592C605.866 62.144 605.386 61.544 605.066 60.792C604.746 60.024 604.586 59.144 604.586 58.152ZM616.072 54.288L614.56 54.096V53.28L615.664 53.112C615.824 53.08 615.944 53.032 616.024 52.968C616.104 52.888 616.16 52.776 616.192 52.632L616.84 50.112H617.92L617.944 53.016H621.208V54.216H617.968V59.904C617.968 60.672 618.088 61.184 618.328 61.44C618.584 61.68 618.936 61.8 619.384 61.8C619.752 61.8 620.088 61.736 620.392 61.608C620.712 61.48 620.984 61.288 621.208 61.032L621.736 61.536C621.48 62.08 621.08 62.488 620.536 62.76C620.008 63.032 619.408 63.168 618.736 63.168C618.256 63.168 617.808 63.096 617.392 62.952C616.992 62.808 616.672 62.544 616.432 62.16C616.192 61.776 616.072 61.232 616.072 60.528V54.288Z" fill="black"/>
<defs>
<linearGradient id="paint0_linear_301_414" x1="0" y1="19.5" x2="622" y2="19.5" gradientUnits="userSpaceOnUse">
<stop stop-color="#BE3455"/>
<stop offset="1" stop-color="#FF899E"/>
</linearGradient>
</defs>
</svg>
